<mxfile host="app.diagrams.net" modified="2023-04-07T10:17:30.756Z" agent="Mozilla/5.0 (Windows NT 10.0; Win64; x64) AppleWebKit/537.36 (KHTML, like Gecko) Chrome/111.0.0.0 Safari/537.36" etag="u7eRwEpybBer18m0q2Mv" version="21.1.5" type="github">
  <diagram name="Page-1" id="74b105a0-9070-1c63-61bc-23e55f88626e">
    <mxGraphModel dx="1764" dy="1044" grid="1" gridSize="10" guides="1" tooltips="1" connect="1" arrows="1" fold="1" page="1" pageScale="1.5" pageWidth="1169" pageHeight="826" background="none" math="0" shadow="0">
      <root>
        <mxCell id="0" style=";html=1;" />
        <mxCell id="1" style=";html=1;" parent="0" />
        <mxCell id="10b056a9c633e61c-30" value="Title" style="text;strokeColor=none;fillColor=none;html=1;fontSize=24;fontStyle=1;verticalAlign=middle;align=center;" parent="1" vertex="1">
          <mxGeometry x="80" y="40" width="1590" height="40" as="geometry" />
        </mxCell>
        <mxCell id="boQCoTf2LVf0JerHzZlF-1" value="&lt;font style=&quot;font-size: 24px;&quot;&gt;Guest&lt;/font&gt;" style="verticalLabelPosition=bottom;html=1;verticalAlign=top;align=center;strokeColor=none;fillColor=#00BEF2;shape=mxgraph.azure.user;" vertex="1" parent="1">
          <mxGeometry x="90" y="330" width="47.5" height="50" as="geometry" />
        </mxCell>
        <mxCell id="boQCoTf2LVf0JerHzZlF-5" value="&lt;font style=&quot;font-size: 24px;&quot;&gt;POS&lt;/font&gt;" style="rounded=0;whiteSpace=wrap;html=1;fillColor=#1ba1e2;fontColor=#ffffff;strokeColor=#006EAF;" vertex="1" parent="1">
          <mxGeometry x="374" y="277" width="196" height="160" as="geometry" />
        </mxCell>
        <mxCell id="boQCoTf2LVf0JerHzZlF-6" value="" style="endArrow=classic;html=1;rounded=0;" edge="1" parent="1">
          <mxGeometry width="50" height="50" relative="1" as="geometry">
            <mxPoint x="150" y="337" as="sourcePoint" />
            <mxPoint x="364" y="337" as="targetPoint" />
          </mxGeometry>
        </mxCell>
        <mxCell id="boQCoTf2LVf0JerHzZlF-7" value="" style="endArrow=classic;html=1;rounded=0;entryX=0;entryY=1;entryDx=0;entryDy=0;entryPerimeter=0;" edge="1" parent="1">
          <mxGeometry width="50" height="50" relative="1" as="geometry">
            <mxPoint x="362" y="380" as="sourcePoint" />
            <mxPoint x="149" y="380.0000000000002" as="targetPoint" />
          </mxGeometry>
        </mxCell>
        <mxCell id="boQCoTf2LVf0JerHzZlF-8" value="&lt;font style=&quot;font-size: 18px;&quot;&gt;book offer&lt;/font&gt;" style="text;html=1;align=center;verticalAlign=middle;resizable=0;points=[];autosize=1;strokeColor=none;fillColor=none;" vertex="1" parent="1">
          <mxGeometry x="170" y="286" width="100" height="40" as="geometry" />
        </mxCell>
        <mxCell id="boQCoTf2LVf0JerHzZlF-9" value="&lt;font style=&quot;font-size: 18px;&quot;&gt;personalized&amp;nbsp; offer&lt;/font&gt;" style="text;html=1;align=center;verticalAlign=middle;resizable=0;points=[];autosize=1;strokeColor=none;fillColor=none;" vertex="1" parent="1">
          <mxGeometry x="168" y="396" width="170" height="40" as="geometry" />
        </mxCell>
        <mxCell id="boQCoTf2LVf0JerHzZlF-13" value="" style="html=1;shadow=0;dashed=0;align=center;verticalAlign=middle;shape=mxgraph.arrows2.twoWayArrow;dy=0.6;dx=35;" vertex="1" parent="1">
          <mxGeometry x="572" y="289" width="198" height="129" as="geometry" />
        </mxCell>
        <mxCell id="boQCoTf2LVf0JerHzZlF-17" value="&lt;font style=&quot;font-size: 18px;&quot;&gt;personalized &lt;br&gt;offers&lt;/font&gt;" style="text;html=1;align=center;verticalAlign=middle;resizable=0;points=[];autosize=1;strokeColor=none;fillColor=none;" vertex="1" parent="1">
          <mxGeometry x="604" y="326" width="130" height="60" as="geometry" />
        </mxCell>
        <mxCell id="boQCoTf2LVf0JerHzZlF-18" value="&lt;font style=&quot;font-size: 24px;&quot;&gt;POS&lt;/font&gt;" style="rounded=0;whiteSpace=wrap;html=1;fillColor=#1ba1e2;fontColor=#ffffff;strokeColor=#006EAF;" vertex="1" parent="1">
          <mxGeometry x="773" y="278" width="307" height="160" as="geometry" />
        </mxCell>
      </root>
    </mxGraphModel>
  </diagram>
</mxfile>
